STARTFONT 2.1
COMMENT Exported by Fony v1.4.5
FONT ProFont22
SIZE 22 72 72
FONTBOUNDINGBOX 12 21 0 -4
STARTPROPERTIES 6
COPYRIGHT "ProFont Distribution 2.2 Generated by Fontographer 4.1.5"
RESOLUTION_X 72
RESOLUTION_Y 72
FONT_ASCENT 18
FONT_DESCENT 4
DEFAULT_CHAR 0
ENDPROPERTIES
CHARS 256
STARTCHAR 000
ENCODING 0
SWIDTH 864 0
DWIDTH 12 0
BBX 0 0 0 0
BITMAP
ENDCHAR
STARTCHAR 001
ENCODING 1
SWIDTH 864 0
DWIDTH 12 0
BBX 0 0 0 0
BITMAP
ENDCHAR
STARTCHAR 002
ENCODING 2
SWIDTH 864 0
DWIDTH 12 0
BBX 0 0 0 0
BITMAP
ENDCHAR
STARTCHAR 003
ENCODING 3
SWIDTH 864 0
DWIDTH 12 0
BBX 0 0 0 0
BITMAP
ENDCHAR
STARTCHAR 004
ENCODING 4
SWIDTH 864 0
DWIDTH 12 0
BBX 0 0 0 0
BITMAP
ENDCHAR
STARTCHAR 005
ENCODING 5
SWIDTH 864 0
DWIDTH 12 0
BBX 0 0 0 0
BITMAP
ENDCHAR
STARTCHAR 006
ENCODING 6
SWIDTH 864 0
DWIDTH 12 0
BBX 0 0 0 0
BITMAP
ENDCHAR
STARTCHAR 007
ENCODING 7
SWIDTH 864 0
DWIDTH 12 0
BBX 0 0 0 0
BITMAP
ENDCHAR
STARTCHAR 008
ENCODING 8
SWIDTH 864 0
DWIDTH 12 0
BBX 0 0 0 0
BITMAP
ENDCHAR
STARTCHAR 009
ENCODING 9
SWIDTH 864 0
DWIDTH 12 0
BBX 0 0 0 0
BITMAP
ENDCHAR
STARTCHAR 010
ENCODING 10
SWIDTH 864 0
DWIDTH 12 0
BBX 0 0 0 0
BITMAP
ENDCHAR
STARTCHAR 011
ENCODING 11
SWIDTH 864 0
DWIDTH 12 0
BBX 0 0 0 0
BITMAP
ENDCHAR
STARTCHAR 012
ENCODING 12
SWIDTH 864 0
DWIDTH 12 0
BBX 0 0 0 0
BITMAP
ENDCHAR
STARTCHAR 013
ENCODING 13
SWIDTH 864 0
DWIDTH 12 0
BBX 0 0 0 0
BITMAP
ENDCHAR
STARTCHAR 014
ENCODING 14
SWIDTH 864 0
DWIDTH 12 0
BBX 0 0 0 0
BITMAP
ENDCHAR
STARTCHAR 015
ENCODING 15
SWIDTH 864 0
DWIDTH 12 0
BBX 0 0 0 0
BITMAP
ENDCHAR
STARTCHAR 016
ENCODING 16
SWIDTH 864 0
DWIDTH 12 0
BBX 0 0 0 0
BITMAP
ENDCHAR
STARTCHAR 017
ENCODING 17
SWIDTH 864 0
DWIDTH 12 0
BBX 0 0 0 0
BITMAP
ENDCHAR
STARTCHAR 018
ENCODING 18
SWIDTH 864 0
DWIDTH 12 0
BBX 0 0 0 0
BITMAP
ENDCHAR
STARTCHAR 019
ENCODING 19
SWIDTH 864 0
DWIDTH 12 0
BBX 0 0 0 0
BITMAP
ENDCHAR
STARTCHAR 020
ENCODING 20
SWIDTH 864 0
DWIDTH 12 0
BBX 0 0 0 0
BITMAP
ENDCHAR
STARTCHAR 021
ENCODING 21
SWIDTH 864 0
DWIDTH 12 0
BBX 0 0 0 0
BITMAP
ENDCHAR
STARTCHAR 022
ENCODING 22
SWIDTH 864 0
DWIDTH 12 0
BBX 0 0 0 0
BITMAP
ENDCHAR
STARTCHAR 023
ENCODING 23
SWIDTH 864 0
DWIDTH 12 0
BBX 0 0 0 0
BITMAP
ENDCHAR
STARTCHAR 024
ENCODING 24
SWIDTH 864 0
DWIDTH 12 0
BBX 0 0 0 0
BITMAP
ENDCHAR
STARTCHAR 025
ENCODING 25
SWIDTH 864 0
DWIDTH 12 0
BBX 0 0 0 0
BITMAP
ENDCHAR
STARTCHAR 026
ENCODING 26
SWIDTH 864 0
DWIDTH 12 0
BBX 0 0 0 0
BITMAP
ENDCHAR
STARTCHAR 027
ENCODING 27
SWIDTH 864 0
DWIDTH 12 0
BBX 0 0 0 0
BITMAP
ENDCHAR
STARTCHAR 028
ENCODING 28
SWIDTH 864 0
DWIDTH 12 0
BBX 0 0 0 0
BITMAP
ENDCHAR
STARTCHAR 029
ENCODING 29
SWIDTH 864 0
DWIDTH 12 0
BBX 0 0 0 0
BITMAP
ENDCHAR
STARTCHAR 030
ENCODING 30
SWIDTH 864 0
DWIDTH 12 0
BBX 0 0 0 0
BITMAP
ENDCHAR
STARTCHAR 031
ENCODING 31
SWIDTH 864 0
DWIDTH 12 0
BBX 0 0 0 0
BITMAP
ENDCHAR
STARTCHAR 032
ENCODING 32
SWIDTH 864 0
DWIDTH 12 0
BBX 0 0 0 0
BITMAP
ENDCHAR
STARTCHAR 033
ENCODING 33
SWIDTH 864 0
DWIDTH 12 0
BBX 2 14 4 0
BITMAP
C0
C0
C0
C0
C0
C0
C0
C0
C0
C0
00
00
C0
C0
ENDCHAR
STARTCHAR 034
ENCODING 34
SWIDTH 864 0
DWIDTH 12 0
BBX 6 6 2 10
BITMAP
CC
CC
CC
CC
CC
CC
ENDCHAR
STARTCHAR 035
ENCODING 35
SWIDTH 864 0
DWIDTH 12 0
BBX 10 10 0 4
BITMAP
3300
3300
FFC0
FFC0
3300
3300
FFC0
FFC0
3300
3300
ENDCHAR
STARTCHAR 036
ENCODING 36
SWIDTH 864 0
DWIDTH 12 0
BBX 10 18 0 -2
BITMAP
0C00
0C00
3F00
7F80
EDC0
CCC0
CC00
EC00
7F00
3F80
0DC0
0CC0
CCC0
EDC0
7F80
3F00
0C00
0C00
ENDCHAR
STARTCHAR 037
ENCODING 37
SWIDTH 864 0
DWIDTH 12 0
BBX 10 14 0 0
BITMAP
3FC0
7FC0
CCC0
CDC0
CF80
CF00
7F00
3F80
3CC0
7CC0
ECC0
CCC0
C780
C300
ENDCHAR
STARTCHAR 038
ENCODING 38
SWIDTH 864 0
DWIDTH 12 0
BBX 10 14 0 0
BITMAP
3E00
7F00
E300
C700
CE00
FC00
7800
7800
FCC0
CFC0
C780
E780
7FC0
3CC0
ENDCHAR
STARTCHAR 039
ENCODING 39
SWIDTH 864 0
DWIDTH 12 0
BBX 2 6 4 10
BITMAP
C0
C0
C0
C0
C0
C0
ENDCHAR
STARTCHAR 040
ENCODING 40
SWIDTH 864 0
DWIDTH 12 0
BBX 6 18 2 -2
BITMAP
0C
1C
38
70
E0
C0
C0
C0
C0
C0
C0
C0
C0
E0
70
38
1C
0C
ENDCHAR
STARTCHAR 041
ENCODING 41
SWIDTH 864 0
DWIDTH 12 0
BBX 6 18 2 -2
BITMAP
C0
E0
70
38
1C
0C
0C
0C
0C
0C
0C
0C
0C
1C
38
70
E0
C0
ENDCHAR
STARTCHAR 042
ENCODING 42
SWIDTH 864 0
DWIDTH 12 0
BBX 10 10 0 4
BITMAP
0C00
0C00
CCC0
FFC0
3F00
3F00
FFC0
CCC0
0C00
0C00
ENDCHAR
STARTCHAR 043
ENCODING 43
SWIDTH 864 0
DWIDTH 12 0
BBX 10 10 0 2
BITMAP
0C00
0C00
0C00
0C00
FFC0
FFC0
0C00
0C00
0C00
0C00
ENDCHAR
STARTCHAR 044
ENCODING 44
SWIDTH 864 0
DWIDTH 12 0
BBX 5 9 2 -4
BITMAP
30
78
78
38
18
38
70
E0
40
ENDCHAR
STARTCHAR 045
ENCODING 45
SWIDTH 864 0
DWIDTH 12 0
BBX 6 2 2 6
BITMAP
FC
FC
ENDCHAR
STARTCHAR 046
ENCODING 46
SWIDTH 864 0
DWIDTH 12 0
BBX 4 4 3 1
BITMAP
60
F0
F0
60
ENDCHAR
STARTCHAR 047
ENCODING 47
SWIDTH 864 0
DWIDTH 12 0
BBX 11 20 0 -4
BITMAP
0060
0060
00C0
00C0
0180
0180
0300
0300
0600
0600
0C00
0C00
1800
1800
3000
3000
6000
6000
C000
C000
ENDCHAR
STARTCHAR 048
ENCODING 48
SWIDTH 864 0
DWIDTH 12 0
BBX 10 14 0 0
BITMAP
3F00
7F80
E1C0
C1C0
C3C0
C7C0
CEC0
DCC0
F8C0
F0C0
E0C0
E1C0
7F80
3F00
ENDCHAR
STARTCHAR 049
ENCODING 49
SWIDTH 864 0
DWIDTH 12 0
BBX 10 14 0 0
BITMAP
0C00
0C00
7C00
7C00
0C00
0C00
0C00
0C00
0C00
0C00
0C00
0C00
FFC0
FFC0
ENDCHAR
STARTCHAR 050
ENCODING 50
SWIDTH 864 0
DWIDTH 12 0
BBX 10 14 0 0
BITMAP
3F00
7F80
E1C0
C0C0
00C0
01C0
0380
0700
0E00
1C00
3800
7000
FFC0
FFC0
ENDCHAR
STARTCHAR 051
ENCODING 51
SWIDTH 864 0
DWIDTH 12 0
BBX 10 14 0 0
BITMAP
3F00
7F80
E1C0
C0C0
00C0
0180
0F00
0F80
01C0
00C0
C0C0
E1C0
7F80
3F00
ENDCHAR
STARTCHAR 052
ENCODING 52
SWIDTH 864 0
DWIDTH 12 0
BBX 10 14 0 0
BITMAP
0300
0700
0F00
1F00
3B00
7300
E300
C300
FFC0
FFC0
0300
0300
0FC0
0FC0
ENDCHAR
STARTCHAR 053
ENCODING 53
SWIDTH 864 0
DWIDTH 12 0
BBX 10 14 0 0
BITMAP
FFC0
FFC0
C000
C000
FF00
FF80
01C0
00C0
00C0
00C0
C0C0
E1C0
7F80
3F00
ENDCHAR
STARTCHAR 054
ENCODING 54
SWIDTH 864 0
DWIDTH 12 0
BBX 10 14 0 0
BITMAP
3F00
7F00
E000
C000
FF00
FF80
C1C0
C0C0
C0C0
C0C0
C0C0
E1C0
7F80
3F00
ENDCHAR
STARTCHAR 055
ENCODING 55
SWIDTH 864 0
DWIDTH 12 0
BBX 10 14 0 0
BITMAP
FFC0
FFC0
00C0
00C0
00C0
01C0
0380
0700
0E00
0C00
0C00
0C00
0C00
0C00
ENDCHAR
STARTCHAR 056
ENCODING 56
SWIDTH 864 0
DWIDTH 12 0
BBX 10 14 0 0
BITMAP
3F00
7F80
E1C0
C0C0
C0C0
6180
3F00
7F80
E1C0
C0C0
C0C0
E1C0
7F80
3F00
ENDCHAR
STARTCHAR 057
ENCODING 57
SWIDTH 864 0
DWIDTH 12 0
BBX 10 14 0 0
BITMAP
3F00
7F80
E1C0
C0C0
C0C0
C0C0
C0C0
E0C0
7FC0
3FC0
00C0
01C0
3F80
3F00
ENDCHAR
STARTCHAR 058
ENCODING 58
SWIDTH 864 0
DWIDTH 12 0
BBX 4 10 3 1
BITMAP
60
F0
F0
60
00
00
60
F0
F0
60
ENDCHAR
STARTCHAR 059
ENCODING 59
SWIDTH 864 0
DWIDTH 12 0
BBX 5 15 2 -4
BITMAP
30
78
78
30
00
00
30
78
78
38
18
38
70
E0
40
ENDCHAR
STARTCHAR 060
ENCODING 60
SWIDTH 864 0
DWIDTH 12 0
BBX 8 14 2 0
BITMAP
03
07
0E
1C
38
70
E0
E0
70
38
1C
0E
07
03
ENDCHAR
STARTCHAR 061
ENCODING 61
SWIDTH 864 0
DWIDTH 12 0
BBX 10 6 0 4
BITMAP
FFC0
FFC0
0000
0000
FFC0
FFC0
ENDCHAR
STARTCHAR 062
ENCODING 62
SWIDTH 864 0
DWIDTH 12 0
BBX 8 14 2 0
BITMAP
C0
E0
70
38
1C
0E
07
07
0E
1C
38
70
E0
C0
ENDCHAR
STARTCHAR 063
ENCODING 63
SWIDTH 864 0
DWIDTH 12 0
BBX 10 14 0 0
BITMAP
3F00
7F80
E1C0
C0C0
00C0
01C0
0380
0700
0E00
0C00
0000
0000
0C00
0C00
ENDCHAR
STARTCHAR 064
ENCODING 64
SWIDTH 864 0
DWIDTH 12 0
BBX 10 14 0 0
BITMAP
3F00
7F80
E1C0
C0C0
C7C0
CFC0
CCC0
CCC0
CFC0
C780
C000
E000
7FC0
3FC0
ENDCHAR
STARTCHAR 065
ENCODING 65
SWIDTH 864 0
DWIDTH 12 0
BBX 10 14 0 0
BITMAP
0C00
1E00
1E00
3300
3300
6180
6180
C0C0
FFC0
FFC0
C0C0
C0C0
C0C0
C0C0
ENDCHAR
STARTCHAR 066
ENCODING 66
SWIDTH 864 0
DWIDTH 12 0
BBX 10 14 0 0
BITMAP
FF00
FF80
C1C0
C0C0
C0C0
C180
FF00
FF80
C1C0
C0C0
C0C0
C1C0
FF80
FF00
ENDCHAR
STARTCHAR 067
ENCODING 67
SWIDTH 864 0
DWIDTH 12 0
BBX 10 14 0 0
BITMAP
3F00
7F80
E1C0
C0C0
C000
C000
C000
C000
C000
C000
C0C0
E1C0
7F80
3F00
ENDCHAR
STARTCHAR 068
ENCODING 68
SWIDTH 864 0
DWIDTH 12 0
BBX 10 14 0 0
BITMAP
FF00
FF80
C1C0
C0C0
C0C0
C0C0
C0C0
C0C0
C0C0
C0C0
C0C0
C1C0
FF80
FF00
ENDCHAR
STARTCHAR 069
ENCODING 69
SWIDTH 864 0
DWIDTH 12 0
BBX 10 14 0 0
BITMAP
FFC0
FFC0
C000
C000
C000
C000
FF00
FF00
C000
C000
C000
C000
FFC0
FFC0
ENDCHAR
STARTCHAR 070
ENCODING 70
SWIDTH 864 0
DWIDTH 12 0
BBX 10 14 0 0
BITMAP
FFC0
FFC0
C000
C000
C000
C000
FF00
FF00
C000
C000
C000
C000
C000
C000
ENDCHAR
STARTCHAR 071
ENCODING 71
SWIDTH 864 0
DWIDTH 12 0
BBX 10 14 0 0
BITMAP
3F00
7F80
E1C0
C0C0
C000
C000
C3C0
C3C0
C0C0
C0C0
C0C0
E1C0
7F80
3F00
ENDCHAR
STARTCHAR 072
ENCODING 72
SWIDTH 864 0
DWIDTH 12 0
BBX 10 14 0 0
BITMAP
C0C0
C0C0
C0C0
C0C0
C0C0
C0C0
FFC0
FFC0
C0C0
C0C0
C0C0
C0C0
C0C0
C0C0
ENDCHAR
STARTCHAR 073
ENCODING 73
SWIDTH 864 0
DWIDTH 12 0
BBX 10 14 0 0
BITMAP
FFC0
FFC0
0C00
0C00
0C00
0C00
0C00
0C00
0C00
0C00
0C00
0C00
FFC0
FFC0
ENDCHAR
STARTCHAR 074
ENCODING 74
SWIDTH 864 0
DWIDTH 12 0
BBX 10 14 0 0
BITMAP
00C0
00C0
00C0
00C0
00C0
00C0
00C0
00C0
C0C0
C0C0
C0C0
E1C0
7F80
3F00
ENDCHAR
STARTCHAR 075
ENCODING 75
SWIDTH 864 0
DWIDTH 12 0
BBX 10 14 0 0
BITMAP
C1C0
C380
C700
CE00
DC00
F800
F000
F800
DC00
CE00
C700
C380
C1C0
C0C0
ENDCHAR
STARTCHAR 076
ENCODING 76
SWIDTH 864 0
DWIDTH 12 0
BBX 10 14 0 0
BITMAP
C000
C000
C000
C000
C000
C000
C000
C000
C000
C000
C000
C000
FFC0
FFC0
ENDCHAR
STARTCHAR 077
ENCODING 77
SWIDTH 864 0
DWIDTH 12 0
BBX 10 14 0 0
BITMAP
C0C0
E1C0
F3C0
FFC0
DEC0
CCC0
CCC0
CCC0
C0C0
C0C0
C0C0
C0C0
C0C0
C0C0
ENDCHAR
STARTCHAR 078
ENCODING 78
SWIDTH 864 0
DWIDTH 12 0
BBX 10 14 0 0
BITMAP
C0C0
E0C0
F0C0
F8C0
DCC0
CEC0
C7C0
C3C0
C1C0
C0C0
C0C0
C0C0
C0C0
C0C0
ENDCHAR
STARTCHAR 079
ENCODING 79
SWIDTH 864 0
DWIDTH 12 0
BBX 10 14 0 0
BITMAP
3F00
7F80
E1C0
C0C0
C0C0
C0C0
C0C0
C0C0
C0C0
C0C0
C0C0
E1C0
7F80
3F00
ENDCHAR
STARTCHAR 080
ENCODING 80
SWIDTH 864 0
DWIDTH 12 0
BBX 10 14 0 0
BITMAP
FF00
FF80
C1C0
C0C0
C0C0
C1C0
FF80
FF00
C000
C000
C000
C000
C000
C000
ENDCHAR
STARTCHAR 081
ENCODING 81
SWIDTH 864 0
DWIDTH 12 0
BBX 10 16 0 -2
BITMAP
3F00
7F80
E1C0
C0C0
C0C0
C0C0
C0C0
C0C0
C0C0
C0C0
CCC0
EFC0
7F80
3F80
01C0
00C0
ENDCHAR
STARTCHAR 082
ENCODING 82
SWIDTH 864 0
DWIDTH 12 0
BBX 10 14 0 0
BITMAP
FF00
FF80
C1C0
C0C0
C0C0
C180
FF00
FF80
C1C0
C0C0
C0C0
C0C0
C0C0
C0C0
ENDCHAR
STARTCHAR 083
ENCODING 83
SWIDTH 864 0
DWIDTH 12 0
BBX 10 14 0 0
BITMAP
3F00
7F80
E1C0
C0C0
C000
E000
7F00
3F80
01C0
00C0
C0C0
E1C0
7F80
3F00
ENDCHAR
STARTCHAR 084
ENCODING 84
SWIDTH 864 0
DWIDTH 12 0
BBX 10 14 0 0
BITMAP
FFC0
FFC0
0C00
0C00
0C00
0C00
0C00
0C00
0C00
0C00
0C00
0C00
0C00
0C00
ENDCHAR
STARTCHAR 085
ENCODING 85
SWIDTH 864 0
DWIDTH 12 0
BBX 10 14 0 0
BITMAP
C0C0
C0C0
C0C0
C0C0
C0C0
C0C0
C0C0
C0C0
C0C0
C0C0
C0C0
E1C0
7F80
3F00
ENDCHAR
STARTCHAR 086
ENCODING 86
SWIDTH 864 0
DWIDTH 12 0
BBX 10 14 0 0
BITMAP
C0C0
C0C0
C0C0
C0C0
C0C0
C0C0
6180
6180
3300
3300
1E00
1E00
0C00
0C00
ENDCHAR
STARTCHAR 087
ENCODING 87
SWIDTH 864 0
DWIDTH 12 0
BBX 10 14 0 0
BITMAP
C0C0
C0C0
C0C0
C0C0
C0C0
C0C0
CCC0
CCC0
CCC0
DEC0
FFC0
F3C0
E1C0
C0C0
ENDCHAR
STARTCHAR 088
ENCODING 88
SWIDTH 864 0
DWIDTH 12 0
BBX 10 14 0 0
BITMAP
C0C0
C0C0
C0C0
E1C0
7380
3F00
1E00
1E00
3F00
7380
E1C0
C0C0
C0C0
C0C0
ENDCHAR
STARTCHAR 089
ENCODING 89
SWIDTH 864 0
DWIDTH 12 0
BBX 10 14 0 0
BITMAP
C0C0
C0C0
C0C0
C0C0
C0C0
E1C0
7380
3F00
1E00
0C00
0C00
0C00
0C00
0C00
ENDCHAR
STARTCHAR 090
ENCODING 90
SWIDTH 864 0
DWIDTH 12 0
BBX 10 14 0 0
BITMAP
FFC0
FFC0
00C0
01C0
0380
0700
0E00
1C00
3800
7000
E000
C000
FFC0
FFC0
ENDCHAR
STARTCHAR 091
ENCODING 91
SWIDTH 864 0
DWIDTH 12 0
BBX 4 18 4 -2
BITMAP
F0
F0
C0
C0
C0
C0
C0
C0
C0
C0
C0
C0
C0
C0
C0
C0
F0
F0
ENDCHAR
STARTCHAR 092
ENCODING 92
SWIDTH 864 0
DWIDTH 12 0
BBX 11 20 1 -4
BITMAP
C000
C000
6000
6000
3000
3000
1800
1800
0C00
0C00
0600
0600
0300
0300
0180
0180
00C0
00C0
0060
0060
ENDCHAR
STARTCHAR 093
ENCODING 93
SWIDTH 864 0
DWIDTH 12 0
BBX 4 18 2 -2
BITMAP
F0
F0
30
30
30
30
30
30
30
30
30
30
30
30
30
30
F0
F0
ENDCHAR
STARTCHAR 094
ENCODING 94
SWIDTH 864 0
DWIDTH 12 0
BBX 10 6 0 8
BITMAP
0C00
1E00
3F00
7380
E1C0
4080
ENDCHAR
STARTCHAR 095
ENCODING 95
SWIDTH 864 0
DWIDTH 12 0
BBX 12 2 0 -4
BITMAP
FFF0
FFF0
ENDCHAR
STARTCHAR 096
ENCODING 96
SWIDTH 864 0
DWIDTH 12 0
BBX 4 4 2 12
BITMAP
C0
E0
70
30
ENDCHAR
STARTCHAR 097
ENCODING 97
SWIDTH 864 0
DWIDTH 12 0
BBX 10 10 0 0
BITMAP
3FC0
7FC0
E0C0
C0C0
C0C0
C1C0
C3C0
E7C0
7EC0
3CC0
ENDCHAR
STARTCHAR 098
ENCODING 98
SWIDTH 864 0
DWIDTH 12 0
BBX 10 14 0 0
BITMAP
C000
C000
C000
C000
FF00
FF80
C1C0
C0C0
C0C0
C0C0
C0C0
C1C0
FF80
FF00
ENDCHAR
STARTCHAR 099
ENCODING 99
SWIDTH 864 0
DWIDTH 12 0
BBX 10 10 0 0
BITMAP
3F00
7F80
E1C0
C0C0
C000
C000
C000
E000
7FC0
3FC0
ENDCHAR
STARTCHAR 100
ENCODING 100
SWIDTH 864 0
DWIDTH 12 0
BBX 10 14 0 0
BITMAP
00C0
00C0
00C0
00C0
3FC0
7FC0
E0C0
C0C0
C0C0
C0C0
C0C0
E0C0
7FC0
3FC0
ENDCHAR
STARTCHAR 101
ENCODING 101
SWIDTH 864 0
DWIDTH 12 0
BBX 10 10 0 0
BITMAP
3F00
7F80
E1C0
C0C0
FFC0
FFC0
C000
E000
7FC0
3FC0
ENDCHAR
STARTCHAR 102
ENCODING 102
SWIDTH 864 0
DWIDTH 12 0
BBX 8 14 2 0
BITMAP
0F
1F
38
30
FC
FC
30
30
30
30
30
30
30
30
ENDCHAR
STARTCHAR 103
ENCODING 103
SWIDTH 864 0
DWIDTH 12 0
BBX 10 14 0 -4
BITMAP
3FC0
7FC0
E0C0
C0C0
C0C0
C0C0
C0C0
E0C0
7FC0
3FC0
00C0
01C0
3F80
3F00
ENDCHAR
STARTCHAR 104
ENCODING 104
SWIDTH 864 0
DWIDTH 12 0
BBX 10 14 0 0
BITMAP
C000
C000
C000
C000
FF00
FF80
C1C0
C0C0
C0C0
C0C0
C0C0
C0C0
C0C0
C0C0
ENDCHAR
STARTCHAR 105
ENCODING 105
SWIDTH 864 0
DWIDTH 12 0
BBX 6 14 2 0
BITMAP
30
30
00
00
F0
F0
30
30
30
30
30
30
FC
FC
ENDCHAR
STARTCHAR 106
ENCODING 106
SWIDTH 864 0
DWIDTH 12 0
BBX 6 18 0 -4
BITMAP
0C
0C
00
00
3C
3C
0C
0C
0C
0C
0C
0C
0C
0C
0C
1C
F8
F0
ENDCHAR
STARTCHAR 107
ENCODING 107
SWIDTH 864 0
DWIDTH 12 0
BBX 10 14 0 0
BITMAP
C000
C000
C000
C000
C380
C700
CE00
DC00
FC00
FE00
E700
C380
C1C0
C0C0
ENDCHAR
STARTCHAR 108
ENCODING 108
SWIDTH 864 0
DWIDTH 12 0
BBX 6 14 2 0
BITMAP
F0
F0
30
30
30
30
30
30
30
30
30
30
FC
FC
ENDCHAR
STARTCHAR 109
ENCODING 109
SWIDTH 864 0
DWIDTH 12 0
BBX 10 10 0 0
BITMAP
FF00
FF80
CDC0
CCC0
CCC0
CCC0
CCC0
CCC0
CCC0
CCC0
ENDCHAR
STARTCHAR 110
ENCODING 110
SWIDTH 864 0
DWIDTH 12 0
BBX 10 10 0 0
BITMAP
CF00
DF80
F9C0
F0C0
E0C0
C0C0
C0C0
C0C0
C0C0
C0C0
ENDCHAR
STARTCHAR 111
ENCODING 111
SWIDTH 864 0
DWIDTH 12 0
BBX 10 10 0 0
BITMAP
3F00
7F80
E1C0
C0C0
C0C0
C0C0
C0C0
E1C0
7F80
3F00
ENDCHAR
STARTCHAR 112
ENCODING 112
SWIDTH 864 0
DWIDTH 12 0
BBX 10 14 0 -4
BITMAP
FF00
FF80
C1C0
C0C0
C0C0
C0C0
C0C0
C1C0
FF80
FF00
C000
C000
C000
C000
ENDCHAR
STARTCHAR 113
ENCODING 113
SWIDTH 864 0
DWIDTH 12 0
BBX 10 14 0 -4
BITMAP
3FC0
7FC0
E0C0
C0C0
C0C0
C0C0
C0C0
E0C0
7FC0
3FC0
00C0
00C0
00C0
00C0
ENDCHAR
STARTCHAR 114
ENCODING 114
SWIDTH 864 0
DWIDTH 12 0
BBX 10 10 0 0
BITMAP
CF00
DF80
F9C0
F0C0
E000
C000
C000
C000
C000
C000
ENDCHAR
STARTCHAR 115
ENCODING 115
SWIDTH 864 0
DWIDTH 12 0
BBX 10 10 0 0
BITMAP
3FC0
7FC0
C000
C000
7F00
3F80
00C0
00C0
FF80
FF00
ENDCHAR
STARTCHAR 116
ENCODING 116
SWIDTH 864 0
DWIDTH 12 0
BBX 8 14 2 0
BITMAP
30
30
30
30
FC
FC
30
30
30
30
30
38
1F
0F
ENDCHAR
STARTCHAR 117
ENCODING 117
SWIDTH 864 0
DWIDTH 12 0
BBX 10 10 0 0
BITMAP
C0C0
C0C0
C0C0
C0C0
C0C0
C1C0
C3C0
E7C0
7EC0
3CC0
ENDCHAR
STARTCHAR 118
ENCODING 118
SWIDTH 864 0
DWIDTH 12 0
BBX 10 10 0 0
BITMAP
C0C0
C0C0
C0C0
6180
6180
3380
3300
1E00
1E00
0C00
ENDCHAR
STARTCHAR 119
ENCODING 119
SWIDTH 864 0
DWIDTH 12 0
BBX 10 10 0 0
BITMAP
CCC0
CCC0
CCC0
CCC0
CCC0
CCC0
CCC0
CCC0
7F80
3300
ENDCHAR
STARTCHAR 120
ENCODING 120
SWIDTH 864 0
DWIDTH 12 0
BBX 10 10 0 0
BITMAP
C0C0
E1C0
7380
3F00
1E00
1E00
3F00
7380
E1C0
C0C0
ENDCHAR
STARTCHAR 121
ENCODING 121
SWIDTH 864 0
DWIDTH 12 0
BBX 10 14 0 -4
BITMAP
C0C0
C0C0
C0C0
C0C0
C0C0
C0C0
C0C0
E0C0
7FC0
3FC0
00C0
01C0
3F80
3F00
ENDCHAR
STARTCHAR 122
ENCODING 122
SWIDTH 864 0
DWIDTH 12 0
BBX 10 10 0 0
BITMAP
FFC0
FFC0
0380
0700
0E00
1C00
3800
7000
FFC0
FFC0
ENDCHAR
STARTCHAR 123
ENCODING 123
SWIDTH 864 0
DWIDTH 12 0
BBX 6 22 2 -4
BITMAP
0C
1C
38
30
30
30
30
30
30
70
E0
E0
70
30
30
30
30
30
30
38
1C
0C
ENDCHAR
STARTCHAR 124
ENCODING 124
SWIDTH 864 0
DWIDTH 12 0
BBX 2 18 4 -2
BITMAP
C0
C0
C0
C0
C0
C0
C0
C0
C0
C0
C0
C0
C0
C0
C0
C0
C0
C0
ENDCHAR
STARTCHAR 125
ENCODING 125
SWIDTH 864 0
DWIDTH 12 0
BBX 6 22 2 -4
BITMAP
C0
E0
70
30
30
30
30
30
30
38
1C
1C
38
30
30
30
30
30
30
70
E0
C0
ENDCHAR
STARTCHAR 126
ENCODING 126
SWIDTH 864 0
DWIDTH 12 0
BBX 10 4 0 6
BITMAP
30C0
7CC0
CF80
C300
ENDCHAR
STARTCHAR 127
ENCODING 127
SWIDTH 864 0
DWIDTH 12 0
BBX 0 0 0 0
BITMAP
ENDCHAR
STARTCHAR 128
ENCODING 128
SWIDTH 864 0
DWIDTH 12 0
BBX 0 0 0 0
BITMAP
ENDCHAR
STARTCHAR 129
ENCODING 129
SWIDTH 864 0
DWIDTH 12 0
BBX 0 0 0 0
BITMAP
ENDCHAR
STARTCHAR 130
ENCODING 130
SWIDTH 864 0
DWIDTH 12 0
BBX 4 7 0 -3
BITMAP
30
30
30
30
70
E0
40
ENDCHAR
STARTCHAR 131
ENCODING 131
SWIDTH 864 0
DWIDTH 12 0
BBX 10 22 0 -4
BITMAP
03C0
07C0
0E00
0C00
0C00
0C00
0C00
0C00
3F00
3F00
0C00
0C00
0C00
0C00
0C00
0C00
0C00
0C00
0C00
1C00
F800
F000
ENDCHAR
STARTCHAR 132
ENCODING 132
SWIDTH 864 0
DWIDTH 12 0
BBX 8 7 0 -3
BITMAP
33
33
33
33
77
EE
44
ENDCHAR
STARTCHAR 133
ENCODING 133
SWIDTH 864 0
DWIDTH 12 0
BBX 10 2 0 0
BITMAP
CCC0
CCC0
ENDCHAR
STARTCHAR 134
ENCODING 134
SWIDTH 864 0
DWIDTH 12 0
BBX 6 10 2 4
BITMAP
30
30
FC
FC
30
30
30
30
30
30
ENDCHAR
STARTCHAR 135
ENCODING 135
SWIDTH 864 0
DWIDTH 12 0
BBX 6 10 2 4
BITMAP
30
30
FC
FC
30
30
FC
FC
30
30
ENDCHAR
STARTCHAR 136
ENCODING 136
SWIDTH 864 0
DWIDTH 12 0
BBX 6 4 2 12
BITMAP
30
78
FC
CC
ENDCHAR
STARTCHAR 137
ENCODING 137
SWIDTH 864 0
DWIDTH 12 0
BBX 12 16 0 0
BITMAP
3FF0
7FF0
CCE0
CDC0
CF80
CF00
7E00
3C00
3CC0
7FE0
F330
F330
B330
3330
1FE0
0CC0
ENDCHAR
STARTCHAR 138
ENCODING 138
SWIDTH 864 0
DWIDTH 12 0
BBX 10 18 0 0
BITMAP
3300
3F00
1E00
0C00
3F00
7F80
E1C0
C0C0
C000
E000
7F00
3F80
01C0
00C0
C0C0
E1C0
7F80
3F00
ENDCHAR
STARTCHAR 139
ENCODING 139
SWIDTH 864 0
DWIDTH 12 0
BBX 4 10 0 -1
BITMAP
30
70
60
E0
C0
C0
E0
60
70
30
ENDCHAR
STARTCHAR 140
ENCODING 140
SWIDTH 864 0
DWIDTH 12 0
BBX 10 14 0 0
BITMAP
3FC0
7FC0
EC00
CC00
CC00
CC00
CF00
CF00
CC00
CC00
CC00
EC00
7FC0
3FC0
ENDCHAR
STARTCHAR 141
ENCODING 141
SWIDTH 864 0
DWIDTH 12 0
BBX 0 0 0 0
BITMAP
ENDCHAR
STARTCHAR 142
ENCODING 142
SWIDTH 864 0
DWIDTH 12 0
BBX 0 0 0 0
BITMAP
ENDCHAR
STARTCHAR 143
ENCODING 143
SWIDTH 864 0
DWIDTH 12 0
BBX 0 0 0 0
BITMAP
ENDCHAR
STARTCHAR 144
ENCODING 144
SWIDTH 864 0
DWIDTH 12 0
BBX 0 0 0 0
BITMAP
ENDCHAR
STARTCHAR 145
ENCODING 145
SWIDTH 864 0
DWIDTH 12 0
BBX 4 7 4 8
BITMAP
20
70
E0
C0
C0
C0
C0
ENDCHAR
STARTCHAR 146
ENCODING 146
SWIDTH 864 0
DWIDTH 12 0
BBX 4 7 4 7
BITMAP
30
30
30
30
70
E0
40
ENDCHAR
STARTCHAR 147
ENCODING 147
SWIDTH 864 0
DWIDTH 12 0
BBX 8 7 2 8
BITMAP
22
77
EE
CC
CC
CC
CC
ENDCHAR
STARTCHAR 148
ENCODING 148
SWIDTH 864 0
DWIDTH 12 0
BBX 8 7 2 7
BITMAP
33
33
33
33
77
EE
44
ENDCHAR
STARTCHAR 149
ENCODING 149
SWIDTH 864 0
DWIDTH 12 0
BBX 10 10 0 2
BITMAP
1E00
7F80
7F80
FFC0
FFC0
FFC0
FFC0
7F80
7F80
1E00
ENDCHAR
STARTCHAR 150
ENCODING 150
SWIDTH 864 0
DWIDTH 12 0
BBX 6 2 2 6
BITMAP
FC
FC
ENDCHAR
STARTCHAR 151
ENCODING 151
SWIDTH 864 0
DWIDTH 12 0
BBX 12 2 0 6
BITMAP
FFF0
FFF0
ENDCHAR
STARTCHAR 152
ENCODING 152
SWIDTH 864 0
DWIDTH 12 0
BBX 10 4 0 12
BITMAP
30C0
7CC0
CF80
C300
ENDCHAR
STARTCHAR 153
ENCODING 153
SWIDTH 864 0
DWIDTH 12 0
BBX 12 6 0 8
BITMAP
FF30
FFF0
33F0
33F0
3330
3330
ENDCHAR
STARTCHAR 154
ENCODING 154
SWIDTH 864 0
DWIDTH 12 0
BBX 10 16 0 0
BITMAP
3300
3F00
1E00
0C00
0000
0000
3FC0
7FC0
C000
C000
7F00
3F80
00C0
00C0
FF80
FF00
ENDCHAR
STARTCHAR 155
ENCODING 155
SWIDTH 864 0
DWIDTH 12 0
BBX 4 10 0 -1
BITMAP
C0
E0
60
70
30
30
70
60
E0
C0
ENDCHAR
STARTCHAR 156
ENCODING 156
SWIDTH 864 0
DWIDTH 12 0
BBX 10 10 0 0
BITMAP
3300
7F80
CCC0
CCC0
CFC0
CFC0
CC00
CC00
7FC0
33C0
ENDCHAR
STARTCHAR 157
ENCODING 157
SWIDTH 864 0
DWIDTH 12 0
BBX 0 0 0 0
BITMAP
ENDCHAR
STARTCHAR 158
ENCODING 158
SWIDTH 864 0
DWIDTH 12 0
BBX 0 0 0 0
BITMAP
ENDCHAR
STARTCHAR 159
ENCODING 159
SWIDTH 864 0
DWIDTH 12 0
BBX 10 18 0 0
BITMAP
3300
3300
0000
0000
C0C0
C0C0
C0C0
C0C0
C0C0
E1C0
7380
3F00
1E00
0C00
0C00
0C00
0C00
0C00
ENDCHAR
STARTCHAR 160
ENCODING 160
SWIDTH 864 0
DWIDTH 12 0
BBX 0 0 0 0
BITMAP
ENDCHAR
STARTCHAR 161
ENCODING 161
SWIDTH 864 0
DWIDTH 12 0
BBX 2 14 6 0
BITMAP
C0
C0
00
00
C0
C0
C0
C0
C0
C0
C0
C0
C0
C0
ENDCHAR
STARTCHAR 162
ENCODING 162
SWIDTH 864 0
DWIDTH 12 0
BBX 10 14 0 -2
BITMAP
0C00
0C00
3F00
7F80
EDC0
CCC0
CC00
CC00
CC00
EC00
7FC0
3FC0
0C00
0C00
ENDCHAR
STARTCHAR 163
ENCODING 163
SWIDTH 864 0
DWIDTH 12 0
BBX 10 16 0 0
BITMAP
3C00
7E00
E700
C300
C000
C000
FC00
FC00
C000
C000
C000
C000
C0C0
C1C0
FF80
FF00
ENDCHAR
STARTCHAR 164
ENCODING 164
SWIDTH 864 0
DWIDTH 12 0
BBX 10 10 0 0
BITMAP
4080
E1C0
7F80
3F00
3300
3300
3F00
7F80
E1C0
4080
ENDCHAR
STARTCHAR 165
ENCODING 165
SWIDTH 864 0
DWIDTH 12 0
BBX 10 14 0 0
BITMAP
C0C0
E1C0
7380
3F00
FFC0
FFC0
0C00
0C00
FFC0
FFC0
0C00
0C00
0C00
0C00
ENDCHAR
STARTCHAR 166
ENCODING 166
SWIDTH 864 0
DWIDTH 12 0
BBX 2 18 4 -2
BITMAP
C0
C0
C0
C0
C0
C0
C0
C0
00
00
C0
C0
C0
C0
C0
C0
C0
C0
ENDCHAR
STARTCHAR 167
ENCODING 167
SWIDTH 864 0
DWIDTH 12 0
BBX 10 20 0 -2
BITMAP
1F00
7F80
61C0
E0C0
70C0
38C0
DC00
CE00
C700
E380
71C0
38C0
1CC0
0EC0
C700
C380
C1C0
E180
7F80
3E00
ENDCHAR
STARTCHAR 168
ENCODING 168
SWIDTH 864 0
DWIDTH 12 0
BBX 6 2 2 12
BITMAP
CC
CC
ENDCHAR
STARTCHAR 169
ENCODING 169
SWIDTH 864 0
DWIDTH 12 0
BBX 10 14 0 0
BITMAP
7800
FE00
8700
0180
3D80
7CC0
C0C0
C0C0
7CC0
3D80
0180
8700
FE00
7800
ENDCHAR
STARTCHAR 170
ENCODING 170
SWIDTH 864 0
DWIDTH 12 0
BBX 8 12 2 6
BITMAP
3F
7F
E3
C3
C3
E3
7F
3F
00
00
FF
FF
ENDCHAR
STARTCHAR 171
ENCODING 171
SWIDTH 864 0
DWIDTH 12 0
BBX 10 10 0 -1
BITMAP
30C0
71C0
6180
E380
C300
C300
E380
6180
71C0
30C0
ENDCHAR
STARTCHAR 172
ENCODING 172
SWIDTH 864 0
DWIDTH 12 0
BBX 10 6 0 2
BITMAP
FFC0
FFC0
00C0
00C0
00C0
00C0
ENDCHAR
STARTCHAR 173
ENCODING 173
SWIDTH 864 0
DWIDTH 12 0
BBX 10 2 0 6
BITMAP
FFC0
FFC0
ENDCHAR
STARTCHAR 174
ENCODING 174
SWIDTH 864 0
DWIDTH 12 0
BBX 10 12 0 2
BITMAP
7800
FE00
8700
0180
F180
F8C0
CCC0
CCC0
F8C0
F9C0
DF80
CF00
ENDCHAR
STARTCHAR 175
ENCODING 175
SWIDTH 864 0
DWIDTH 12 0
BBX 6 2 2 12
BITMAP
FC
FC
ENDCHAR
STARTCHAR 176
ENCODING 176
SWIDTH 864 0
DWIDTH 12 0
BBX 8 8 2 8
BITMAP
3C
7E
E7
C3
C3
E7
7E
3C
ENDCHAR
STARTCHAR 177
ENCODING 177
SWIDTH 864 0
DWIDTH 12 0
BBX 10 12 0 0
BITMAP
0C00
0C00
0C00
0C00
FFC0
FFC0
0C00
0C00
0C00
0C00
FFC0
FFC0
ENDCHAR
STARTCHAR 178
ENCODING 178
SWIDTH 864 0
DWIDTH 12 0
BBX 5 7 3 11
BITMAP
70
88
08
10
20
40
F8
ENDCHAR
STARTCHAR 179
ENCODING 179
SWIDTH 864 0
DWIDTH 12 0
BBX 5 7 3 11
BITMAP
70
88
08
30
08
88
70
ENDCHAR
STARTCHAR 180
ENCODING 180
SWIDTH 864 0
DWIDTH 12 0
BBX 4 4 4 12
BITMAP
30
70
E0
C0
ENDCHAR
STARTCHAR 181
ENCODING 181
SWIDTH 864 0
DWIDTH 12 0
BBX 10 14 0 -4
BITMAP
C300
C300
C300
C300
C300
C300
C300
C780
FFC0
FCC0
C000
C000
C000
C000
ENDCHAR
STARTCHAR 182
ENCODING 182
SWIDTH 864 0
DWIDTH 12 0
BBX 10 16 0 0
BITMAP
1FC0
7FC0
7CC0
ECC0
CCC0
CCC0
ECC0
7CC0
7FC0
1FC0
0CC0
0CC0
0CC0
0CC0
0CC0
0CC0
ENDCHAR
STARTCHAR 183
ENCODING 183
SWIDTH 864 0
DWIDTH 12 0
BBX 4 4 4 4
BITMAP
60
F0
F0
60
ENDCHAR
STARTCHAR 184
ENCODING 184
SWIDTH 864 0
DWIDTH 12 0
BBX 4 6 2 -4
BITMAP
F0
F0
30
70
E0
40
ENDCHAR
STARTCHAR 185
ENCODING 185
SWIDTH 864 0
DWIDTH 12 0
BBX 5 7 3 11
BITMAP
20
E0
20
20
20
20
F8
ENDCHAR
STARTCHAR 186
ENCODING 186
SWIDTH 864 0
DWIDTH 12 0
BBX 8 12 2 6
BITMAP
3C
7E
E7
C3
C3
E7
7E
3C
00
00
FF
FF
ENDCHAR
STARTCHAR 187
ENCODING 187
SWIDTH 864 0
DWIDTH 12 0
BBX 10 10 0 -1
BITMAP
C300
E380
6180
71C0
30C0
30C0
71C0
6180
E380
C300
ENDCHAR
STARTCHAR 188
ENCODING 188
SWIDTH 864 0
DWIDTH 12 0
BBX 12 18 0 0
BITMAP
1000
7000
1000
1000
1010
1020
7C40
0080
0100
0200
0400
0840
10C0
2140
4240
83E0
0040
00E0
ENDCHAR
STARTCHAR 189
ENCODING 189
SWIDTH 864 0
DWIDTH 12 0
BBX 12 18 0 0
BITMAP
1000
7000
1000
1000
1010
1020
7C40
0080
0100
0200
0400
09C0
1220
2020
4040
8080
0100
03E0
ENDCHAR
STARTCHAR 190
ENCODING 190
SWIDTH 864 0
DWIDTH 12 0
BBX 12 18 0 0
BITMAP
3800
4400
0400
1800
0410
4420
3840
0080
0100
0200
0400
0840
10C0
2140
4240
83E0
0040
00E0
ENDCHAR
STARTCHAR 191
ENCODING 191
SWIDTH 864 0
DWIDTH 12 0
BBX 10 14 0 0
BITMAP
0C00
0C00
0000
0000
0C00
1C00
3800
7000
E000
C000
C0C0
E1C0
7F80
3F00
ENDCHAR
STARTCHAR 192
ENCODING 192
SWIDTH 864 0
DWIDTH 12 0
BBX 10 18 0 0
BITMAP
3000
3800
1C00
0C00
0C00
1E00
1E00
3300
3300
6180
6180
C0C0
FFC0
FFC0
C0C0
C0C0
C0C0
C0C0
ENDCHAR
STARTCHAR 193
ENCODING 193
SWIDTH 864 0
DWIDTH 12 0
BBX 10 18 0 0
BITMAP
0300
0700
0E00
0C00
0C00
1E00
1E00
3300
3300
6180
6180
C0C0
FFC0
FFC0
C0C0
C0C0
C0C0
C0C0
ENDCHAR
STARTCHAR 194
ENCODING 194
SWIDTH 864 0
DWIDTH 12 0
BBX 10 18 0 0
BITMAP
0C00
1E00
3F00
3300
0C00
1E00
1E00
3300
3300
6180
6180
C0C0
FFC0
FFC0
C0C0
C0C0
C0C0
C0C0
ENDCHAR
STARTCHAR 195
ENCODING 195
SWIDTH 864 0
DWIDTH 12 0
BBX 10 18 0 0
BITMAP
30C0
7CC0
CF80
C300
0C00
1E00
1E00
3300
3300
6180
6180
C0C0
FFC0
FFC0
C0C0
C0C0
C0C0
C0C0
ENDCHAR
STARTCHAR 196
ENCODING 196
SWIDTH 864 0
DWIDTH 12 0
BBX 10 18 0 0
BITMAP
3300
3300
0000
0000
0C00
1E00
1E00
3300
3300
6180
6180
C0C0
FFC0
FFC0
C0C0
C0C0
C0C0
C0C0
ENDCHAR
STARTCHAR 197
ENCODING 197
SWIDTH 864 0
DWIDTH 12 0
BBX 10 18 0 0
BITMAP
0C00
1E00
3300
3300
1E00
1E00
1E00
3300
3300
6180
6180
C0C0
FFC0
FFC0
C0C0
C0C0
C0C0
C0C0
ENDCHAR
STARTCHAR 198
ENCODING 198
SWIDTH 864 0
DWIDTH 12 0
BBX 10 14 0 0
BITMAP
3FC0
7FC0
EC00
CC00
CC00
CC00
FF00
FF00
CC00
CC00
CC00
CC00
CFC0
CFC0
ENDCHAR
STARTCHAR 199
ENCODING 199
SWIDTH 864 0
DWIDTH 12 0
BBX 10 18 0 -4
BITMAP
3F00
7F80
E1C0
C0C0
C000
C000
C000
C000
C000
C000
C0C0
E1C0
7F80
3F00
0C00
1C00
3800
1000
ENDCHAR
STARTCHAR 200
ENCODING 200
SWIDTH 864 0
DWIDTH 12 0
BBX 10 18 0 0
BITMAP
3000
3800
1C00
0C00
FFC0
FFC0
C000
C000
C000
C000
FF00
FF00
C000
C000
C000
C000
FFC0
FFC0
ENDCHAR
STARTCHAR 201
ENCODING 201
SWIDTH 864 0
DWIDTH 12 0
BBX 10 18 0 0
BITMAP
0300
0700
0E00
0C00
FFC0
FFC0
C000
C000
C000
C000
FF00
FF00
C000
C000
C000
C000
FFC0
FFC0
ENDCHAR
STARTCHAR 202
ENCODING 202
SWIDTH 864 0
DWIDTH 12 0
BBX 10 18 0 0
BITMAP
0C00
1E00
3F00
3300
FFC0
FFC0
C000
C000
C000
C000
FF00
FF00
C000
C000
C000
C000
FFC0
FFC0
ENDCHAR
STARTCHAR 203
ENCODING 203
SWIDTH 864 0
DWIDTH 12 0
BBX 10 18 0 0
BITMAP
3300
3300
0000
0000
FFC0
FFC0
C000
C000
C000
C000
FF00
FF00
C000
C000
C000
C000
FFC0
FFC0
ENDCHAR
STARTCHAR 204
ENCODING 204
SWIDTH 864 0
DWIDTH 12 0
BBX 10 18 0 0
BITMAP
3000
3800
1C00
0C00
FFC0
FFC0
0C00
0C00
0C00
0C00
0C00
0C00
0C00
0C00
0C00
0C00
FFC0
FFC0
ENDCHAR
STARTCHAR 205
ENCODING 205
SWIDTH 864 0
DWIDTH 12 0
BBX 10 18 0 0
BITMAP
0300
0700
0E00
0C00
FFC0
FFC0
0C00
0C00
0C00
0C00
0C00
0C00
0C00
0C00
0C00
0C00
FFC0
FFC0
ENDCHAR
STARTCHAR 206
ENCODING 206
SWIDTH 864 0
DWIDTH 12 0
BBX 10 18 0 0
BITMAP
0C00
1E00
3F00
3300
FFC0
FFC0
0C00
0C00
0C00
0C00
0C00
0C00
0C00
0C00
0C00
0C00
FFC0
FFC0
ENDCHAR
STARTCHAR 207
ENCODING 207
SWIDTH 864 0
DWIDTH 12 0
BBX 10 18 0 0
BITMAP
3300
3300
0000
0000
FFC0
FFC0
0C00
0C00
0C00
0C00
0C00
0C00
0C00
0C00
0C00
0C00
FFC0
FFC0
ENDCHAR
STARTCHAR 208
ENCODING 208
SWIDTH 864 0
DWIDTH 12 0
BBX 10 14 0 0
BITMAP
3F00
3F80
31C0
30C0
30C0
30C0
FCC0
FCC0
30C0
30C0
30C0
31C0
3F80
3F00
ENDCHAR
STARTCHAR 209
ENCODING 209
SWIDTH 864 0
DWIDTH 12 0
BBX 10 18 0 0
BITMAP
30C0
7CC0
CF80
C700
C0C0
E0C0
F0C0
F8C0
DCC0
CEC0
C7C0
C3C0
C1C0
C0C0
C0C0
C0C0
C0C0
C0C0
ENDCHAR
STARTCHAR 210
ENCODING 210
SWIDTH 864 0
DWIDTH 12 0
BBX 10 18 0 0
BITMAP
3000
3800
1C00
0C00
3F00
7F80
E1C0
C0C0
C0C0
C0C0
C0C0
C0C0
C0C0
C0C0
C0C0
E1C0
7F80
3F00
ENDCHAR
STARTCHAR 211
ENCODING 211
SWIDTH 864 0
DWIDTH 12 0
BBX 10 18 0 0
BITMAP
0300
0700
0E00
0C00
3F00
7F80
E1C0
C0C0
C0C0
C0C0
C0C0
C0C0
C0C0
C0C0
C0C0
E1C0
7F80
3F00
ENDCHAR
STARTCHAR 212
ENCODING 212
SWIDTH 864 0
DWIDTH 12 0
BBX 10 18 0 0
BITMAP
0C00
1E00
3F00
3300
0000
3F00
7F80
E1C0
C0C0
C0C0
C0C0
C0C0
C0C0
C0C0
C0C0
E1C0
7F80
3F00
ENDCHAR
STARTCHAR 213
ENCODING 213
SWIDTH 864 0
DWIDTH 12 0
BBX 10 18 0 0
BITMAP
30C0
7CC0
CF80
C700
3F00
7F80
E1C0
C0C0
C0C0
C0C0
C0C0
C0C0
C0C0
C0C0
C0C0
E1C0
7F80
3F00
ENDCHAR
STARTCHAR 214
ENCODING 214
SWIDTH 864 0
DWIDTH 12 0
BBX 10 18 0 0
BITMAP
3300
3300
0000
0000
3F00
7F80
E1C0
C0C0
C0C0
C0C0
C0C0
C0C0
C0C0
C0C0
C0C0
E1C0
7F80
3F00
ENDCHAR
STARTCHAR 215
ENCODING 215
SWIDTH 864 0
DWIDTH 12 0
BBX 10 10 0 2
BITMAP
4080
E1C0
7380
3F00
1E00
1E00
3F00
7380
E1C0
4080
ENDCHAR
STARTCHAR 216
ENCODING 216
SWIDTH 864 0
DWIDTH 12 0
BBX 10 14 0 0
BITMAP
3F00
7F80
E1C0
C1C0
C3C0
C7C0
CEC0
DCC0
F8C0
F0C0
E0C0
E1C0
7F80
3F00
ENDCHAR
STARTCHAR 217
ENCODING 217
SWIDTH 864 0
DWIDTH 12 0
BBX 10 18 0 0
BITMAP
3000
3800
1C00
0C00
C0C0
C0C0
C0C0
C0C0
C0C0
C0C0
C0C0
C0C0
C0C0
C0C0
C0C0
E1C0
7F80
3F00
ENDCHAR
STARTCHAR 218
ENCODING 218
SWIDTH 864 0
DWIDTH 12 0
BBX 10 18 0 0
BITMAP
0300
0700
0E00
0C00
C0C0
C0C0
C0C0
C0C0
C0C0
C0C0
C0C0
C0C0
C0C0
C0C0
C0C0
E1C0
7F80
3F00
ENDCHAR
STARTCHAR 219
ENCODING 219
SWIDTH 864 0
DWIDTH 12 0
BBX 10 18 0 0
BITMAP
0C00
1E00
3F00
3300
0000
C0C0
C0C0
C0C0
C0C0
C0C0
C0C0
C0C0
C0C0
C0C0
C0C0
E1C0
7F80
3F00
ENDCHAR
STARTCHAR 220
ENCODING 220
SWIDTH 864 0
DWIDTH 12 0
BBX 10 18 0 0
BITMAP
3300
3300
0000
0000
C0C0
C0C0
C0C0
C0C0
C0C0
C0C0
C0C0
C0C0
C0C0
C0C0
C0C0
E1C0
7F80
3F00
ENDCHAR
STARTCHAR 221
ENCODING 221
SWIDTH 864 0
DWIDTH 12 0
BBX 10 18 0 0
BITMAP
0300
0700
0E00
0C00
C0C0
C0C0
C0C0
C0C0
C0C0
E1C0
7380
3F00
1E00
0C00
0C00
0C00
0C00
0C00
ENDCHAR
STARTCHAR 222
ENCODING 222
SWIDTH 864 0
DWIDTH 12 0
BBX 10 14 0 0
BITMAP
C000
C000
FF00
FF80
C1C0
C0C0
C0C0
C1C0
FF80
FF00
C000
C000
C000
C000
ENDCHAR
STARTCHAR 223
ENCODING 223
SWIDTH 864 0
DWIDTH 12 0
BBX 10 18 0 -2
BITMAP
0F00
1F80
39C0
70C0
E0C0
C1C0
C380
C300
C300
C380
C1C0
C0C0
C0C0
C1C0
CF80
CF00
C000
C000
ENDCHAR
STARTCHAR 224
ENCODING 224
SWIDTH 864 0
DWIDTH 12 0
BBX 10 16 0 0
BITMAP
0C00
0E00
0700
0300
0000
0000
3FC0
7FC0
E0C0
C0C0
C0C0
C1C0
C3C0
E7C0
7EC0
3CC0
ENDCHAR
STARTCHAR 225
ENCODING 225
SWIDTH 864 0
DWIDTH 12 0
BBX 10 16 0 0
BITMAP
0300
0700
0E00
0C00
0000
0000
3FC0
7FC0
E0C0
C0C0
C0C0
C1C0
C3C0
E7C0
7EC0
3CC0
ENDCHAR
STARTCHAR 226
ENCODING 226
SWIDTH 864 0
DWIDTH 12 0
BBX 10 16 0 0
BITMAP
0C00
1E00
3F00
3300
0000
0000
3FC0
7FC0
E0C0
C0C0
C0C0
C1C0
C3C0
E7C0
7EC0
3CC0
ENDCHAR
STARTCHAR 227
ENCODING 227
SWIDTH 864 0
DWIDTH 12 0
BBX 10 16 0 0
BITMAP
30C0
7CC0
CF80
C700
0000
0000
3FC0
7FC0
E0C0
C0C0
C0C0
C1C0
C3C0
E7C0
7EC0
3CC0
ENDCHAR
STARTCHAR 228
ENCODING 228
SWIDTH 864 0
DWIDTH 12 0
BBX 10 14 0 0
BITMAP
3300
3300
0000
0000
3FC0
7FC0
E0C0
C0C0
C0C0
C1C0
C3C0
E7C0
7EC0
3CC0
ENDCHAR
STARTCHAR 229
ENCODING 229
SWIDTH 864 0
DWIDTH 12 0
BBX 10 16 0 0
BITMAP
0C00
1E00
3300
3300
1E00
0C00
3FC0
7FC0
E0C0
C0C0
C0C0
C1C0
C3C0
E7C0
7EC0
3CC0
ENDCHAR
STARTCHAR 230
ENCODING 230
SWIDTH 864 0
DWIDTH 12 0
BBX 10 10 0 0
BITMAP
3F00
7F80
EDC0
CCC0
CFC0
CFC0
CC00
EC00
7FC0
3FC0
ENDCHAR
STARTCHAR 231
ENCODING 231
SWIDTH 864 0
DWIDTH 12 0
BBX 10 14 0 -4
BITMAP
3F00
7F80
E1C0
C0C0
C000
C000
C000
E000
7FC0
3FC0
0C00
1C00
3800
1000
ENDCHAR
STARTCHAR 232
ENCODING 232
SWIDTH 864 0
DWIDTH 12 0
BBX 10 16 0 0
BITMAP
3000
3800
1C00
0C00
0000
0000
3F00
7F80
E1C0
C0C0
FFC0
FFC0
C000
E000
7FC0
3FC0
ENDCHAR
STARTCHAR 233
ENCODING 233
SWIDTH 864 0
DWIDTH 12 0
BBX 10 16 0 0
BITMAP
0300
0700
0E00
0C00
0000
0000
3F00
7F80
E1C0
C0C0
FFC0
FFC0
C000
E000
7FC0
3FC0
ENDCHAR
STARTCHAR 234
ENCODING 234
SWIDTH 864 0
DWIDTH 12 0
BBX 10 16 0 0
BITMAP
0C00
1E00
3F00
3300
0000
0000
3F00
7F80
E1C0
C0C0
FFC0
FFC0
C000
E000
7FC0
3FC0
ENDCHAR
STARTCHAR 235
ENCODING 235
SWIDTH 864 0
DWIDTH 12 0
BBX 10 14 0 0
BITMAP
3300
3300
0000
0000
3F00
7F80
E1C0
C0C0
FFC0
FFC0
C000
E000
7FC0
3FC0
ENDCHAR
STARTCHAR 236
ENCODING 236
SWIDTH 864 0
DWIDTH 12 0
BBX 6 16 2 0
BITMAP
C0
E0
70
30
00
00
F0
F0
30
30
30
30
30
30
FC
FC
ENDCHAR
STARTCHAR 237
ENCODING 237
SWIDTH 864 0
DWIDTH 12 0
BBX 6 16 2 0
BITMAP
0C
1C
38
30
00
00
F0
F0
30
30
30
30
30
30
FC
FC
ENDCHAR
STARTCHAR 238
ENCODING 238
SWIDTH 864 0
DWIDTH 12 0
BBX 6 16 2 0
BITMAP
30
78
FC
CC
00
00
F0
F0
30
30
30
30
30
30
FC
FC
ENDCHAR
STARTCHAR 239
ENCODING 239
SWIDTH 864 0
DWIDTH 12 0
BBX 6 14 2 0
BITMAP
CC
CC
00
00
F0
F0
30
30
30
30
30
30
FC
FC
ENDCHAR
STARTCHAR 240
ENCODING 240
SWIDTH 864 0
DWIDTH 12 0
BBX 10 17 0 0
BITMAP
2400
7E00
3C00
3C00
7E00
2700
0380
3FC0
7FC0
E1C0
C0C0
C0C0
C0C0
C0C0
E1C0
7F80
3F00
ENDCHAR
STARTCHAR 241
ENCODING 241
SWIDTH 864 0
DWIDTH 12 0
BBX 10 16 0 0
BITMAP
30C0
7CC0
CF80
C700
0000
0000
CF00
DF80
F9C0
F0C0
E0C0
C0C0
C0C0
C0C0
C0C0
C0C0
ENDCHAR
STARTCHAR 242
ENCODING 242
SWIDTH 864 0
DWIDTH 12 0
BBX 10 16 0 0
BITMAP
3000
3800
1C00
0C00
0000
0000
3F00
7F80
E1C0
C0C0
C0C0
C0C0
C0C0
E1C0
7F80
3F00
ENDCHAR
STARTCHAR 243
ENCODING 243
SWIDTH 864 0
DWIDTH 12 0
BBX 10 16 0 0
BITMAP
0300
0700
0E00
0C00
0000
0000
3F00
7F80
E1C0
C0C0
C0C0
C0C0
C0C0
E1C0
7F80
3F00
ENDCHAR
STARTCHAR 244
ENCODING 244
SWIDTH 864 0
DWIDTH 12 0
BBX 10 16 0 0
BITMAP
0C00
1E00
3F00
3300
0000
0000
3F00
7F80
E1C0
C0C0
C0C0
C0C0
C0C0
E1C0
7F80
3F00
ENDCHAR
STARTCHAR 245
ENCODING 245
SWIDTH 864 0
DWIDTH 12 0
BBX 10 16 0 0
BITMAP
30C0
7CC0
CF80
C700
0000
0000
3F00
7F80
E1C0
C0C0
C0C0
C0C0
C0C0
E1C0
7F80
3F00
ENDCHAR
STARTCHAR 246
ENCODING 246
SWIDTH 864 0
DWIDTH 12 0
BBX 10 14 0 0
BITMAP
3300
3300
0000
0000
3F00
7F80
E1C0
C0C0
C0C0
C0C0
C0C0
E1C0
7F80
3F00
ENDCHAR
STARTCHAR 247
ENCODING 247
SWIDTH 864 0
DWIDTH 12 0
BBX 10 10 0 2
BITMAP
0C00
0C00
0000
0000
FFC0
FFC0
0000
0000
0C00
0C00
ENDCHAR
STARTCHAR 248
ENCODING 248
SWIDTH 864 0
DWIDTH 12 0
BBX 10 10 0 0
BITMAP
3F00
7F80
E3C0
C7C0
CEC0
DCC0
F8C0
F1C0
7F80
3F00
ENDCHAR
STARTCHAR 249
ENCODING 249
SWIDTH 864 0
DWIDTH 12 0
BBX 10 16 0 0
BITMAP
3000
3800
1C00
0C00
0000
0000
C0C0
C0C0
C0C0
C0C0
C0C0
C1C0
C3C0
E7C0
7EC0
3CC0
ENDCHAR
STARTCHAR 250
ENCODING 250
SWIDTH 864 0
DWIDTH 12 0
BBX 10 16 0 0
BITMAP
0300
0700
0E00
0C00
0000
0000
C0C0
C0C0
C0C0
C0C0
C0C0
C1C0
C3C0
E7C0
7EC0
3CC0
ENDCHAR
STARTCHAR 251
ENCODING 251
SWIDTH 864 0
DWIDTH 12 0
BBX 10 16 0 0
BITMAP
0C00
1E00
3F00
3300
0000
0000
C0C0
C0C0
C0C0
C0C0
C0C0
C1C0
C3C0
E7C0
7EC0
3CC0
ENDCHAR
STARTCHAR 252
ENCODING 252
SWIDTH 864 0
DWIDTH 12 0
BBX 10 14 0 0
BITMAP
3300
3300
0000
0000
C0C0
C0C0
C0C0
C0C0
C0C0
C1C0
C3C0
E7C0
7EC0
3CC0
ENDCHAR
STARTCHAR 253
ENCODING 253
SWIDTH 864 0
DWIDTH 12 0
BBX 10 20 0 -4
BITMAP
0300
0700
0E00
0C00
0000
0000
C0C0
C0C0
C0C0
C0C0
C0C0
C0C0
C0C0
E0C0
7FC0
3FC0
00C0
01C0
3F80
3F00
ENDCHAR
STARTCHAR 254
ENCODING 254
SWIDTH 864 0
DWIDTH 12 0
BBX 10 18 0 -4
BITMAP
C000
C000
C000
C000
FF00
FF80
C1C0
C0C0
C0C0
C0C0
C0C0
C1C0
FF80
FF00
C000
C000
C000
C000
ENDCHAR
STARTCHAR 255
ENCODING 255
SWIDTH 864 0
DWIDTH 12 0
BBX 10 18 0 -4
BITMAP
3300
3300
0000
0000
C0C0
C0C0
C0C0
C0C0
C0C0
C0C0
C0C0
E0C0
7FC0
3FC0
00C0
01C0
3F80
3F00
ENDCHAR
ENDFONT
